<svg height="123" viewBox="0 0 123 123" width="123" xmlns="http://www.w3.org/2000/svg" xmlns:xlink="http://www.w3.org/1999/xlink"><mask id="a" fill="#fff"><path d="m0 0h122.522v122.523h-122.522z" fill="#fff" fill-rule="evenodd"/></mask><g fill="#fff" mask="url(#a)"><path d="m8.70798442 61.26c0 20.803 12.08901558 38.779 29.61901558 47.299l-25.069-68.687c-3.0052057 6.7295973-4.5556861 14.0178773-4.55001558 21.388zm88.03201558-2.652c0-6.495-2.333-10.993-4.334-14.494-2.664-4.329-5.16-7.995-5.16-12.324 0-4.831 3.663-9.328 8.824-9.328.233 0 .454.029.682.042-9.351-8.566-21.808-13.796-35.49-13.796-18.36 0-34.513 9.42-43.91 23.688 1.233.037 2.396.062 3.382.062 5.497 0 14.006-.667 14.006-.667 2.833-.167 3.167 3.994.338 4.329 0 0-2.848.335-6.016.501l19.138 56.925 11.502-34.493-8.189-22.433c-2.83-.166-5.511-.501-5.511-.501-2.832-.166-2.5-4.496.332-4.329 0 0 8.679.667 13.843.667 5.496 0 14.006-.667 14.006-.667 2.835-.167 3.168 3.994.337 4.329 0 0-2.853.335-6.015.501l18.992 56.494 5.241-17.517c2.273-7.269 4.002-12.49 4.002-16.989z"/><path d="m62.184 65.857-15.768 45.818c4.8206817 1.420687 9.8203336 2.142 14.846 2.142 6.12 0 11.989-1.059 17.452-2.979-.1465427-.22939-.2717339-.471738-.374-.724zm45.192-29.811c.226 1.674.354 3.472.354 5.404 0 5.333-.996 11.328-3.996 18.824l-16.053 46.413c15.624-9.111 26.133066-26.038 26.133066-45.427.01395-8.813023-2.200688-17.4865038-6.438066-25.214z"/><path d="m61.262 0c-33.779 0-61.262 27.481-61.262 61.26 0 33.783 27.482 61.264 61.262 61.264 33.778 0 61.265-27.48 61.265-61.264 0-33.779-27.487-61.26-61.265-61.26zm0 119.715c-32.23 0-58.453-26.223-58.453-58.455 0-32.229 26.222-58.45 58.453-58.45 32.229 0 58.45 26.221 58.45 58.45 0 32.232-26.222 58.455-58.45 58.455z"/></g></svg>